<?xml version="1.0" encoding="utf-8"?>
<!-- Generator: Adobe Illustrator 21.0.2, SVG Export Plug-In . SVG Version: 6.00 Build 0)  -->
<svg version="1.1" id="Layer_1" xmlns="http://www.w3.org/2000/svg" xmlns:xlink="http://www.w3.org/1999/xlink" x="0px" y="0px"
	 viewBox="0 0 544 51" style="enable-background:new 0 0 544 51;" xml:space="preserve">
<style type="text/css">
	.st0{fill:#FFFFFF;}
</style>
<path class="st0" d="M41.2,12.9c0,5.4-3.3,9.6-8.7,11.1C39,25.2,43,30.1,43,36.7c0,8.6-7.3,14-19,14H0V0.3h23.2
	C34.3,0.3,41.2,5.1,41.2,12.9z M29.5,15c0-3.5-2.6-5.5-6.9-5.4H11.4v11h11.2C26.9,20.6,29.5,18.5,29.5,15z M31.3,35.3
	c0-3.7-3.3-5.9-8.6-5.8H11.4v12h11.2C27.9,41.4,31.3,39.2,31.3,35.3z"/>
<path class="st0" d="M73.2,41.3c6.8,0,11.2-4.4,11.2-11.7V0.3h11.4v29.3c0,13.3-8.7,21.6-22.6,21.6c-14,0-22.9-8.3-22.9-21.6V0.3
	h11.4v29.3C61.7,36.9,66.5,41.3,73.2,41.3z"/>
<path class="st0" d="M123.5,9.5c-3.8,0-6.4,1.4-6.4,4.1c0,9.3,26.9,4.1,26.8,22.2c0,9.9-8.6,15.2-19.7,15.2c-8.3,0-16.6-3.2-22.2-8
	l4.5-9.3c5.2,4.6,12.5,7.6,17.9,7.6c4.7,0,7.5-1.7,7.5-4.8c0-9.5-26.9-4-26.9-21.8c0-9.1,7.8-14.9,19.5-14.9
	c7.1,0,14.1,2.2,19.2,5.5l-4.4,9.4C133.8,11.5,127.5,9.5,123.5,9.5z"/>
<path class="st0" d="M163.2,0.3v50.4h-11.4V0.3H163.2z"/>
<path class="st0" d="M184.8,0.3l24.5,32.4V0.3H220v50.4h-10.4l-24.4-32.3v32.3h-10.9V0.3H184.8z"/>
<path class="st0" d="M269.5,0.3v9.4h-27v10.9h24.3v9.4h-24.3v11.2h27.8v9.4h-39.2V0.3H269.5z"/>
<path class="st0" d="M296.7,9.5c-3.8,0-6.4,1.4-6.4,4.1c0,9.3,26.9,4.1,26.8,22.2c0,9.9-8.6,15.2-19.7,15.2c-8.3,0-16.6-3.2-22.2-8
	l4.5-9.3c5.2,4.6,12.5,7.6,17.9,7.6c4.7,0,7.5-1.7,7.5-4.8c0-9.5-26.9-4-26.9-21.8c0-9.1,7.8-14.9,19.5-14.9
	c7.1,0,14.1,2.2,19.2,5.5l-4.4,9.4C307.1,11.5,300.7,9.5,296.7,9.5z"/>
<path class="st0" d="M342.6,9.5c-3.8,0-6.4,1.4-6.4,4.1c0,9.3,26.9,4.1,26.8,22.2c0,9.9-8.6,15.2-19.7,15.2c-8.3,0-16.6-3.2-22.2-8
	l4.5-9.3c5.2,4.6,12.5,7.6,17.9,7.6c4.7,0,7.5-1.7,7.5-4.8c0-9.5-26.9-4-26.9-21.8c0-9.1,7.8-14.9,19.5-14.9
	c7.1,0,14.1,2.2,19.2,5.5l-4.4,9.4C352.9,11.5,346.6,9.5,342.6,9.5z"/>
<path class="st0" d="M434.1,17.8c0,11.7-7.3,18.5-20.2,18.5h-10v14.4h-11.4V0.3h21.4C426.7,0.3,434.1,6.6,434.1,17.8z M423.3,18.2
	c0-5.6-3.6-8.4-9.9-8.4h-9.4v17.1h9.4C419.7,26.8,423.3,23.9,423.3,18.2z"/>
<path class="st0" d="M472.3,50.7l-8-14.4h-1.1h-10.5v14.4h-11.4V0.3h21.9c13.2,0,20.7,6.3,20.7,17.5c0,7.8-3.3,13.4-9.4,16.3
	l10.7,16.6H472.3z M452.7,26.8h10.5c6.3,0,9.9-2.9,9.9-8.6c0-5.6-3.6-8.4-9.9-8.4h-10.5V26.8z"/>
<path class="st0" d="M544,25.5c0,14.5-11.7,25.7-27.1,25.7s-27.1-11.1-27.1-25.7c0-14.7,11.7-25.6,27.1-25.6S544,10.9,544,25.5z
	 M501.5,25.5c0,8.9,7.1,15.8,15.6,15.8c8.4,0,15.3-6.9,15.3-15.8c0-8.9-6.8-15.6-15.3-15.6C508.6,9.9,501.5,16.6,501.5,25.5z"/>
</svg>
